<svg width="187.465625px" height="141.8px" xmlns="http://www.w3.org/2000/svg" viewBox="156.2671875 4.099999999999994 187.465625 141.8" style="background: rgba(0, 0, 0, 0);" preserveAspectRatio="xMidYMid"><defs><filter id="editing-raise" x="-100%" y="-100%" width="300%" height="300%"><feFlood flood-color="#ccc" result="flood-surface"></feFlood><feFlood flood-color="#777" result="flood-extrude"></feFlood><feMorphology operator="erode" in="SourceAlpha" radius="1" result="erode"></feMorphology><feConvolveMatrix in="erode" result="shadow" order="11,8" divisor="1" kernelMatrix="0 0 0 1 1 1 1 1 0 0 0 0 0 1 0 0 0 0 0 1 0 0 0 0 1 0 0 0 0 0 1 0 0 0 0 1 0 0 0 0 0 1 0 0 0 0 1 0 0 0 0 0 1 0 0 0 0 0 1 0 0 0 1 0 0 0 0 0 0 1 1 0 1 1 0 0 0 0 0 0 0 0 1 0 0 0 0 0"></feConvolveMatrix><feOffset dx="0" dy="4" in="shadow" result="offset"></feOffset><feGaussianBlur in="offset" stdDeviation="0.2" result="blur"></feGaussianBlur><feComposite operator="in" in="flood-extrude" in2="blur" result="extrude"></feComposite><feMorphology operator="erode" in="SourceAlpha" radius="1" result="erode2"></feMorphology><feConvolveMatrix in="erode2" result="out" order="4,4" divisor="1" kernelMatrix="0 1 1 0 1 0 0 1 1 0 0 1 0 1 1 0 "></feConvolveMatrix><feComposite operator="in" in="flood-surface" in2="out" result="text"></feComposite><feMerge><feMergeNode in="extrude"></feMergeNode><feMergeNode in="text"></feMergeNode></feMerge></filter></defs><g filter="url(#editing-raise)"><g transform="translate(195.11740171909332, 97.46500015258789)"><path d="M34.50-13.25L34.50-13.25L34.50-13.25Q36.16-12.03 36.16-9.44L36.16-9.44L36.16-9.44Q36.16-6.85 35.04-5.02L35.04-5.02L35.04-5.02Q33.92-3.20 31.74-1.79L31.74-1.79L31.74-1.79Q27.07 1.22 18.91 1.22L18.91 1.22L18.91 1.22Q10.75 1.22 6.30-3.04L6.30-3.04L6.30-3.04Q1.86-7.30 1.86-14.85L1.86-14.85L1.86-14.85Q1.86-25.54 7.42-33.66L7.42-33.66L7.42-33.66Q11.65-39.68 19.20-42.24L19.20-42.24L19.20-42.24Q23.10-43.52 26.94-43.52L26.94-43.52L26.94-43.52Q30.78-43.52 33.15-43.01L33.15-43.01L33.15-43.01Q35.52-42.50 37.31-41.47L37.31-41.47L37.31-41.47Q41.22-39.23 41.22-35.65L41.22-35.65L41.22-35.65Q41.22-32.38 38.14-29.95L38.14-29.95L38.14-29.95Q35.33-27.78 33.02-27.78L33.02-27.78L33.02-27.78Q30.72-27.78 29.76-28.10L29.76-28.10L29.76-28.10Q30.02-30.40 30.02-31.90L30.02-31.90L30.02-31.90Q30.02-33.41 29.95-34.50L29.95-34.50L29.95-34.50Q29.89-35.58 29.57-36.61L29.57-36.61L29.57-36.61Q28.93-38.98 26.98-38.98L26.98-38.98L26.98-38.98Q25.02-38.98 23.07-37.15L23.07-37.15L23.07-37.15Q21.12-35.33 19.46-32.26L19.46-32.26L19.46-32.26Q15.68-25.28 15.68-17.02L15.68-17.02L15.68-17.02Q15.68-13.06 17.92-10.78L17.92-10.78L17.92-10.78Q20.16-8.51 24.96-8.51L24.96-8.51L24.96-8.51Q28.54-8.51 31.94-10.88L31.94-10.88L31.94-10.88Q33.41-11.90 34.50-13.25ZM46.59-31.17L46.59-31.17L46.59-31.17Q44.42-32.83 44.42-36.38L44.42-36.38L44.42-36.38Q44.42-39.94 46.75-41.79L46.75-41.79L46.75-41.79Q49.09-43.65 53.12-43.65L53.12-43.65L53.12-43.65Q55.68-43.65 61.76-42.75L61.76-42.75L66.11-42.11L66.11-42.11Q68.29-41.86 70.56-41.86L70.56-41.86L70.56-41.86Q72.83-41.86 74.37-42.82L74.37-42.82L74.37-42.82Q76.67-40.77 76.67-37.82L76.67-37.82L76.67-37.82Q76.67-34.88 74.05-32.77L74.05-32.77L74.05-32.77Q71.36-30.53 67.90-30.53L67.90-30.53L67.90-30.53Q66.24-30.53 63.55-30.98L63.55-30.98L63.55-30.98Q60.42-21.12 60.42-14.27L60.42-14.27L60.42-14.27Q60.42-7.42 63.87-3.84L63.87-3.84L63.87-3.84Q62.27-0.96 59.90 0.16L59.90 0.16L59.90 0.16Q57.54 1.28 53.98 1.28L53.98 1.28L53.98 1.28Q50.43 1.28 48.22-0.67L48.22-0.67L48.22-0.67Q46.02-2.62 46.02-6.66L46.02-6.66L46.02-6.66Q46.02-11.33 48.58-19.01L48.58-19.01L48.58-19.01Q51.14-26.62 54.98-32.45L54.98-32.45L54.98-32.45Q53.12-32.64 51.20-32.64L51.20-32.64L51.20-32.64Q47.23-32.64 46.59-31.17ZM103.74-33.92L103.74-33.92L103.74-33.92Q98.56-33.92 94.78-35.65L94.78-35.65L92.74-25.28L105.09-25.28L105.09-25.28Q105.09-21.89 103.39-19.74L103.39-19.74L103.39-19.74Q101.70-17.60 98.62-17.60L98.62-17.60L98.62-17.60Q95.30-17.60 92.22-18.82L92.22-18.82L92.22-18.82Q91.58-19.07 91.52-19.14L91.52-19.14L87.87 0L73.92 0L82.05-42.24L110.59-42.24L110.59-42.24Q110.59-38.34 108.77-36.13L108.77-36.13L108.77-36.13Q106.94-33.92 103.74-33.92Z"></path></g></g><style>text {
  font-size: 64px;
  font-family: Arial Black;
  dominant-baseline: central;
  text-anchor: middle;
}</style></svg>